<svg xmlns="http://www.w3.org/2000/svg" viewBox="0 0 160 160" fill="none">
  <defs><linearGradient id="g" x1="25" y1="20" x2="133" y2="142" gradientUnits="userSpaceOnUse"><stop stop-color="#FFF3BE"/><stop offset="1" stop-color="#FFF"/></linearGradient></defs>
  <path d="M80 16c-15 20-18 32-8 44 6 7 8 13 8 23 12-10 19-22 17-34-2-12-9-23-17-33Z" fill="url(#g)"/>
  <path d="M80 74C61 51 37 56 31 72c12 16 27 22 49 22-18 8-30 19-35 34 20 8 36-1 35-27 1 26 15 35 35 27-5-15-17-26-35-34 22 0 37-6 49-22-6-16-30-21-49 2Z" stroke="#FFF8DD" stroke-width="5" stroke-linejoin="round"/>
  <path d="M80 96v37m-18 0h36M56 145h48" stroke="#FFF8DD" stroke-width="5" stroke-linecap="round"/>
</svg>
